<svg xmlns="http://www.w3.org/2000/svg" width="16" height="16" class="uil-default" preserveAspectRatio="xMidYMid" viewBox="0 0 100 100"><path fill="none" d="M0 0h100v100H0z" class="bk"/><rect width="7" height="20" x="46.5" y="40" fill="#00b2ff" rx="5" ry="5" transform="translate(0 -30)"><animate attributeName="opacity" begin="0s" dur="1s" from="1" repeatCount="indefinite" to="0"/></rect><rect width="7" height="20" x="46.5" y="40" fill="#00b2ff" rx="5" ry="5" transform="rotate(30 106 65)"><animate attributeName="opacity" begin="0.08333333333333333s" dur="1s" from="1" repeatCount="indefinite" to="0"/></rect><rect width="7" height="20" x="46.5" y="40" fill="#00b2ff" rx="5" ry="5" transform="rotate(60 76 65)"><animate attributeName="opacity" begin="0.16666666666666666s" dur="1s" from="1" repeatCount="indefinite" to="0"/></rect><rect width="7" height="20" x="46.5" y="40" fill="#00b2ff" rx="5" ry="5" transform="rotate(90 65 65)"><animate attributeName="opacity" begin="0.25s" dur="1s" from="1" repeatCount="indefinite" to="0"/></rect><rect width="7" height="20" x="46.5" y="40" fill="#00b2ff" rx="5" ry="5" transform="rotate(120 59 65)"><animate attributeName="opacity" begin="0.3333333333333333s" dur="1s" from="1" repeatCount="indefinite" to="0"/></rect><rect width="7" height="20" x="46.5" y="40" fill="#00b2ff" rx="5" ry="5" transform="rotate(150 54 65)"><animate attributeName="opacity" begin="0.4166666666666667s" dur="1s" from="1" repeatCount="indefinite" to="0"/></rect><rect width="7" height="20" x="46.5" y="40" fill="#00b2ff" rx="5" ry="5" transform="matrix(-1 0 0 -1 100 130)"><animate attributeName="opacity" begin="0.5s" dur="1s" from="1" repeatCount="indefinite" to="0"/></rect><rect width="7" height="20" x="46.5" y="40" fill="#00b2ff" rx="5" ry="5" transform="rotate(210 46 65)"><animate attributeName="opacity" begin="0.5833333333333334s" dur="1s" from="1" repeatCount="indefinite" to="0"/></rect><rect width="7" height="20" x="46.5" y="40" fill="#00b2ff" rx="5" ry="5" transform="rotate(240 41 65)"><animate attributeName="opacity" begin="0.6666666666666666s" dur="1s" from="1" repeatCount="indefinite" to="0"/></rect><rect width="7" height="20" x="46.5" y="40" fill="#00b2ff" rx="5" ry="5" transform="rotate(-90 35 65)"><animate attributeName="opacity" begin="0.75s" dur="1s" from="1" repeatCount="indefinite" to="0"/></rect><rect width="7" height="20" x="46.5" y="40" fill="#00b2ff" rx="5" ry="5" transform="rotate(-60 24 65)"><animate attributeName="opacity" begin="0.8333333333333334s" dur="1s" from="1" repeatCount="indefinite" to="0"/></rect><rect width="7" height="20" x="46.5" y="40" fill="#00b2ff" rx="5" ry="5" transform="rotate(-30 -6 65)"><animate attributeName="opacity" begin="0.9166666666666666s" dur="1s" from="1" repeatCount="indefinite" to="0"/></rect></svg>