<svg enable-background="new 0 0 269.667 82.333" height="82.333" viewBox="0 0 269.667 82.333" width="269.667" xmlns="http://www.w3.org/2000/svg"><path d="m109.192 30.407h-11.051c-5.478 0-9.919 4.847-9.919 10.826 0 5.982 4.441 10.829 9.919 10.829h11.051c5.48 0 9.921-4.847 9.921-10.829 0-5.98-4.441-10.826-9.921-10.826zm-2.233 16.738h-6.585c-3.264 0-5.911-2.645-5.911-5.912 0-3.264 2.646-5.909 5.911-5.909h6.585c3.266 0 5.911 2.646 5.911 5.909.001 3.267-2.645 5.912-5.911 5.912z" fill="#878fc6"/><path d="m150.642 33.76c-.66-2.21-1.79-3.358-3.812-3.358-1.313 0-2.932.419-3.816 2.163-1.638 3.23-5.112 10.241-5.112 10.241s-3.464-6.972-5.103-10.202c-.884-1.745-2.513-2.202-3.825-2.202-2.021 0-3.151 1.148-3.812 3.358-.655 2.194-5.286 17.963-5.286 17.963h6.365l3.316-12.723s1.636 4.402 3.127 7.943c1.026 2.438 3.197 3.315 4.987 3.315s3.551-.805 4.842-3.113c1.581-2.823 3.734-8.249 3.734-8.249l3.315 12.827h6.364c.001 0-4.629-15.768-5.284-17.963z" fill="#878fc6"/><path d="m158.298 51.723s0-15.711 0-17.401c0-1.691 1.19-3.92 3.245-3.92s3.731 1.869 4.688 2.729c.956.86 11.397 10.188 11.397 10.188v-12.572h5.599v17.56s-1.192 3.761-3.575 3.761-3.541-1.477-5.057-2.992-10.432-10.739-10.432-10.739v13.388h-5.865z" fill="#878fc6"/><path d="m187.146 30.747h5.599v20.977h-5.599z" fill="#878fc6"/><path d="m196.758 38.648v10.275s.506 2.8 2.664 2.8h11.381c5.117 0 12.639-4.041 12.639-10.692s-5.927-10.284-12.814-10.284-9.73 0-9.73 0l-4.139 5.456h14.045c5.58 0 6.211 3.886 6.211 5.11s-.894 5.016-6.211 5.016c-5.316 0-7.525 0-7.525 0v-7.681z" fill="#525678"/><path d="m250.405 40.937s2.853-1.397 2.853-4.39-2.125-5.801-8.244-5.801c-6.12 0-13.892 0-13.892 0l-4.39 5.456h17.917s2.465.354 2.465 1.347-.767 1.412-2.565 1.412c-1.8 0-17.816 0-17.816 0s0 8.061 0 9.448.648 3.313 4.503 3.313 10.441 0 13.933 0c3.49 0 8.521-1.923 8.521-5.831-.002-3.906-3.285-4.954-3.285-4.954zm-5.91 5.392c-1.746 0-11.243 0-11.243 0v-2.884h11.397s2.557.07 2.557 1.412-.964 1.472-2.711 1.472z" fill="#525678"/><g fill="#878fc6"><path d="m57.694 31.129c-1.484-2.352-3.474-4.342-5.825-5.823.646 1.263 1.214 2.643 1.691 4.129 1.489.48 2.87 1.051 4.134 1.694z"/><path d="m43.292 22.507v5.234c2.323.072 4.553.333 6.649.762-.969-2.344-2.205-4.237-3.614-5.531-.984-.236-1.996-.392-3.035-.465z"/><path d="m57.692 50.87c-1.265.644-2.643 1.215-4.132 1.691-.477 1.489-1.046 2.867-1.691 4.132 2.352-1.482 4.341-3.472 5.823-5.823z"/><path d="m60.188 44.681c-.359-.742-.612-1.537-.744-2.381h-4.192c-.072 2.322-.332 4.551-.756 6.645 2.344-.969 4.238-2.207 5.532-3.618.052-.217.117-.427.16-.646z"/><path d="m60.029 36.675c-1.293-1.414-3.187-2.652-5.534-3.624.424 2.097.684 4.325.756 6.647h4.192c.132-.844.385-1.639.747-2.378-.045-.219-.11-.431-.161-.645z"/><path d="m52.168 42.3h-8.875v8.873c2.79-.092 5.421-.475 7.782-1.094.618-2.361 1.001-4.989 1.093-7.779z"/><path d="m43.292 39.699h8.875c-.092-2.79-.475-5.421-1.094-7.782-2.361-.619-4.992-1.002-7.782-1.094v8.876z"/><path d="m43.292 59.493c1.039-.072 2.05-.229 3.036-.466 1.409-1.296 2.645-3.187 3.614-5.531-2.096.427-4.327.687-6.649.759v5.238z"/><path d="m29.499 48.945c-.427-2.094-.687-4.322-.759-6.645h-5.24c.071 1.036.228 2.046.462 3.026 1.295 1.415 3.19 2.65 5.537 3.619z"/><path d="m40.695 22.507c-1.038.072-2.05.229-3.034.465-1.409 1.294-2.645 3.188-3.612 5.528 2.096-.426 4.324-.687 6.646-.759z"/><path d="m40.695 30.823c-2.789.092-5.419.475-7.779 1.094-.621 2.361-1.002 4.992-1.094 7.782h8.873z"/><path d="m32.123 25.304c-2.353 1.481-4.344 3.472-5.827 5.822 1.265-.643 2.645-1.214 4.135-1.691.479-1.488 1.048-2.869 1.692-4.131z"/><path d="m40.695 59.493v-5.238c-2.322-.072-4.552-.332-6.646-.759.967 2.345 2.202 4.238 3.612 5.531.985.236 1.996.393 3.034.466z"/><path d="m23.499 39.699h5.241c.071-2.322.332-4.551.759-6.647-2.348.969-4.243 2.21-5.538 3.624-.234.98-.39 1.989-.462 3.023z"/><path d="m32.123 56.695c-.644-1.265-1.213-2.643-1.691-4.131-1.489-.478-2.868-1.049-4.133-1.691 1.482 2.35 3.472 4.34 5.824 5.822z"/><path d="m40.695 42.3h-8.873c.092 2.79.475 5.418 1.094 7.779 2.359.619 4.99 1.002 7.779 1.094z"/><path d="m36.436 14.434c.642 1.11.979 2.306 1.082 3.505 1.451-.281 2.944-.438 4.477-.438 10.299 0 19.03 6.635 22.203 15.854 1.094-.513 2.301-.823 3.59-.823.431 0 .846.064 1.26.127-3.561-11.562-14.325-19.967-27.052-19.967-2.165 0-4.264.266-6.291.726.256.325.518.647.731 1.016z"/><path d="m21.771 59.104c.646-1.115 1.519-2.007 2.513-2.695-3.58-4.107-5.765-9.463-5.783-15.339 0-.022-.006-.044-.006-.068 0-.019.005-.036.005-.055.013-5.874 2.193-11.227 5.766-15.339-.99-.689-1.854-1.593-2.497-2.706-.211-.366-.356-.747-.508-1.127-4.685 5.052-7.572 11.795-7.572 19.227 0 7.436 2.889 14.179 7.576 19.228.15-.379.296-.762.506-1.126z"/><path d="m67.787 49.47c-1.289 0-2.499-.311-3.592-.826-3.175 9.222-11.901 15.853-22.2 15.853-1.535 0-3.031-.159-4.483-.438-.103 1.202-.432 2.401-1.072 3.515-.212.368-.472.687-.728 1.01 2.023.46 4.121.725 6.283.725 12.728 0 23.492-8.403 27.055-19.965-.418.061-.832.126-1.263.126z"/></g><path d="m73.462 41.001c0-3.137-2.539-5.678-5.676-5.678s-5.683 2.541-5.683 5.678 2.546 5.674 5.683 5.674 5.676-2.537 5.676-5.674z" fill="#525678"/><path d="m26.262 13.754c-2.718 1.566-3.647 5.033-2.079 7.753 1.566 2.715 5.042 3.645 7.757 2.079 2.718-1.568 3.645-5.045 2.079-7.755-1.573-2.715-5.04-3.65-7.757-2.077z" fill="#525678"/><path d="m26.267 68.256c2.72 1.568 6.187.639 7.755-2.076 1.566-2.715.636-6.189-2.077-7.755-2.72-1.571-6.191-.639-7.752 2.074-1.571 2.72-.644 6.192 2.074 7.757z" fill="#525678"/></svg>